<?xml version="1.0" encoding="utf-8"?>
<!-- Generator: Adobe Illustrator 21.1.0, SVG Export Plug-In . SVG Version: 6.00 Build 0)  -->
<svg version="1.1" xmlns="http://www.w3.org/2000/svg" xmlns:xlink="http://www.w3.org/1999/xlink" x="0px" y="0px"
	 viewBox="0 0 647.3 149.3" enable-background="new 0 0 647.3 149.3" xml:space="preserve">
<g id="Layer_1">
	<g>
		<path fill="#539536" d="M166.7,30.3h33.7c11.5,0,20.2,3.1,25.7,8.7c4.8,4.8,7.5,11.4,7.5,20.1v0.6c0,12.7-6.3,20.7-15.3,25.3
			l17.6,31.1H211l-14.6-26.6h-7.8v26.6h-21.9V30.3z M199.5,72c7.5,0,11.9-4.3,11.9-11.2v-0.2c0-7.4-4.7-11-12-11h-10.8V72H199.5z"/>
		<path fill="#539536" d="M239.1,83.9v-1.3c0-20,12.5-34.2,30-34.2c19.6,0,29.4,15.2,29.4,35.4c0,0.9,0,4.4-0.1,6.1H260
			c1.6,7.1,6.4,10.8,12.7,10.8c5.3,0,9.6-2.5,13.6-6.3l10.3,12.3c-6.3,6.6-14.3,10.9-25.4,10.9C252.5,117.6,239.1,104.6,239.1,83.9z
			 M278.5,77.7c-0.6-8.2-4-12.7-9.3-12.7c-5.1,0-8.6,4.3-9.4,12.7H278.5z"/>
		<path fill="#539536" d="M302.2,108.5l8.1-14.3c6.5,4.5,13.4,7.2,19.2,7.2c3.7,0,5.4-1.6,5.4-3.7v-0.2c0-2.6-3.1-3.8-9.7-6.4
			c-11.6-4.3-20.2-8.9-20.2-21v-0.2c0-13.4,10.2-21.3,24.6-21.3c8.2,0,16.9,2.3,24.3,7.1l-7.8,14.6c-5.3-3.3-11.5-5.6-16.3-5.6
			c-3.4,0-5,1.6-5,3.4v0.2c0,2.5,3.3,3.8,9.8,6.5c12,4.5,20.1,9.4,20.1,20.7v0.2c0,13.9-10.1,21.7-25,21.7
			C320.6,117.4,310.8,114.9,302.2,108.5z"/>
		<path d="M361.7,105.2l5.8-7c7.1,6.6,14.5,10.7,24.1,10.7c10.3,0,17.2-6.3,17.2-14.5v-0.1c0-7.1-3.4-11.6-19-17.2
			C372,70.5,365,64.1,365,52v-0.2c0-12.9,10.8-22.7,25.9-22.7c9.9,0,18.1,3.1,25.7,9.7l-5.5,7.1c-6.4-5.5-13.1-8.3-20.6-8.3
			c-9.8,0-16.2,6-16.2,13.4v0.2c0,7.5,3.8,11.8,20,17.7c17.4,6.5,23.8,13.5,23.8,24.9v0.2c0,13.7-11.3,23.4-26.6,23.4
			C380.4,117.3,370.6,113.5,361.7,105.2z"/>
		<path d="M433.9,101.3V60.1h-7.7v-7.8h7.7V33.6h8.8v18.6h16.7v7.8h-16.7v39.7c0,6.7,3.7,9.2,9.2,9.2c2.5,0,4.9-0.6,7.5-1.7v7.6
			c-2.8,1.3-5.9,2.2-9.6,2.2C440.7,117.1,433.9,112.7,433.9,101.3z"/>
		<path d="M466.7,84.7v-0.9c0-18.6,12-32.9,28.4-32.9s28.3,14.1,28.3,32.7v0.7c0,18.6-12,33-28.4,33
			C478.6,117.4,466.7,103.3,466.7,84.7z M514.5,84.6V84c0-14.3-8.6-25-19.5-25c-11.3,0-19.2,10.7-19.2,24.9v0.6
			c0,14.3,8.5,25,19.4,25C506.4,109.5,514.5,98.7,514.5,84.6z"/>
		<path d="M530.5,84.8V84c0-19.4,12.5-33,28.4-33c9.1,0,15.2,3.8,20.1,8.7l-5.3,6.6c-3.8-3.8-8.3-7.2-15-7.2
			c-10.7,0-19.2,10.1-19.2,24.9v0.6c0,15.1,8.8,24.8,19.6,24.8c6.3,0,10.9-3.2,15-7.4l5.1,5.9c-4.8,5.4-11.2,9.6-20.6,9.6
			C542.6,117.4,530.5,104.2,530.5,84.8z"/>
		<path d="M590.5,27.6h8.8V87l28.3-34.8h10.7l-22.4,26.8l23.3,37h-10.4l-18.9-30l-10.5,12.4v17.7h-8.8V27.6z"/>
	</g>
	<g>
		<circle cx="76.6" cy="74.3" r="69.8"/>
		<polygon fill="#DCDDDE" points="36,110.4 23.1,74.8 45.4,74.8 45.4,47.3 73.8,47.3 73.8,58.5 110.5,58.5 110.5,68.7 128.1,68.7 
			123.7,100.7 101.3,121.2 68.1,126.3 		"/>
		<polygon fill="#539536" points="117.3,109.7 126,91.8 117.8,91.8 117.8,82.5 110.1,78 102.4,82.5 102.4,87.5 87.5,87.5 87.5,79.3 
			77.5,69.7 67.8,79.3 67.8,94.1 53.8,94.1 53.8,89 26.8,89 44.8,118 90.1,128.1 		"/>
		<g>
			<path fill="#FFFFFF" d="M76.6,130.4c-31,0-56.2-25.2-56.2-56.2c0-31,25.2-56.2,56.2-56.2s56.2,25.2,56.2,56.2
				C132.8,105.2,107.6,130.4,76.6,130.4z M76.6,25.7c-26.8,0-48.6,21.8-48.6,48.6c0,26.8,21.8,48.6,48.6,48.6s48.6-21.8,48.6-48.6
				C125.2,47.5,103.4,25.7,76.6,25.7z"/>
		</g>
	</g>
</g>
<g id="_x3C_Layer_x3E_">
</g>
</svg>
